<?xml version="1.0" standalone="no"?>
<!DOCTYPE svg PUBLIC "-//W3C//DTD SVG 20010904//EN"
 "http://www.w3.org/TR/2001/REC-SVG-20010904/DTD/svg10.dtd">
<svg version="1.0" xmlns="http://www.w3.org/2000/svg"
 width="191.000000pt" height="250.000000pt" viewBox="0 0 191.000000 250.000000"
 preserveAspectRatio="xMidYMid meet">

<g transform="translate(0.000000,250.000000) scale(0.100000,-0.100000)"
fill="#fff" stroke="none">
<path d="M910 2408 c-118 -252 -198 -433 -194 -440 3 -5 20 -8 37 -8 18 0 38
-4 46 -9 19 -12 -14 -29 -73 -37 -25 -4 -50 -12 -54 -18 -7 -8 -140 -290 -215
-454 -15 -32 3 -41 78 -43 33 0 80 -4 105 -7 l44 -7 -60 -32 c-33 -17 -100
-43 -149 -58 -49 -14 -90 -26 -91 -28 -1 -1 -40 -85 -87 -187 l-85 -185 27 -8
c14 -5 90 -11 169 -14 98 -4 142 -9 139 -17 -8 -29 -195 -98 -326 -121 -46 -8
-85 -16 -87 -18 -2 -1 -32 -68 -68 -147 l-66 -145 33 -15 c25 -11 81 -14 242
-15 177 0 219 3 270 18 107 34 205 88 272 152 l63 60 0 -291 0 -291 23 -21
c33 -31 80 -29 106 4 20 26 21 39 21 311 l0 283 53 -52 c60 -61 158 -116 267
-150 68 -21 93 -23 275 -23 226 0 281 10 269 48 -16 51 -117 263 -130 273 -8
6 -42 15 -76 18 -114 13 -314 89 -326 124 -3 9 21 12 95 12 90 0 219 13 229
23 5 4 -18 56 -86 202 -23 50 -50 108 -60 130 -17 40 -20 41 -132 78 -108 36
-186 72 -176 83 3 2 53 8 112 13 58 4 108 10 111 13 5 5 -28 79 -144 322 -39
82 -71 152 -71 157 0 9 -17 14 -75 24 -70 12 -85 45 -20 45 19 0 37 4 40 10 3
5 -34 98 -83 207 -49 109 -100 223 -112 253 -13 30 -26 59 -30 63 -4 4 -26
-34 -50 -85z"/>
</g>
</svg>
